<svg xmlns="http://www.w3.org/2000/svg" width="800" height="1280" viewBox="0 0 800 1280" role="img" aria-labelledby="title desc">
  <title id="title">Gravity Maze portrait challenge screenshot</title>
  <desc id="desc">A portrait-oriented Gravity Maze level with a tall puzzle board and gravity indicator.</desc>
  <rect width="800" height="1280" fill="#f8fbff"/>
  <rect x="48" y="48" width="704" height="1184" rx="32" fill="#ffffff" stroke="#dce5f2" stroke-width="4"/>
  <text x="96" y="136" fill="#172033" font-family="'Google Sans', 'Product Sans', 'Segoe UI', Arial, sans-serif" font-size="44" font-weight="800">Gravity Maze</text>
  <text x="96" y="184" fill="#637084" font-family="'Google Sans', 'Product Sans', 'Segoe UI', Arial, sans-serif" font-size="26">Level 18 - Tall drop</text>
  <g transform="translate(96 240)">
    <rect width="608" height="784" rx="24" fill="#edf4ff"/>
    <g transform="translate(28 28)">
      <rect x="0" y="0" width="96" height="96" rx="14" fill="#ffffff" stroke="#dce5f2" stroke-width="2"/>
      <rect x="114" y="0" width="96" height="96" rx="14" fill="#1e293b"/>
      <circle cx="276" cy="48" r="42" fill="#f59e0b"/>
      <rect x="342" y="0" width="96" height="96" rx="14" fill="#ffffff" stroke="#dce5f2" stroke-width="2"/>
      <rect x="456" y="0" width="96" height="96" rx="14" fill="#1e293b"/>

      <rect x="0" y="114" width="96" height="96" rx="14" fill="#1e293b"/>
      <circle cx="162" cy="162" r="42" fill="#2563eb"/>
      <path d="M138 162h48" stroke="#ffffff" stroke-width="10" stroke-linecap="round"/>
      <rect x="228" y="114" width="96" height="96" rx="14" fill="#ffffff" stroke="#dce5f2" stroke-width="2"/>
      <rect x="342" y="114" width="96" height="96" rx="14" fill="#ffffff" stroke="#dce5f2" stroke-width="2"/>
      <rect x="456" y="114" width="96" height="96" rx="14" fill="#ffffff" stroke="#dce5f2" stroke-width="2"/>

      <rect x="0" y="228" width="96" height="96" rx="14" fill="#ffffff" stroke="#dce5f2" stroke-width="2"/>
      <rect x="114" y="228" width="96" height="96" rx="14" fill="#ffffff" stroke="#dce5f2" stroke-width="2"/>
      <rect x="228" y="228" width="96" height="96" rx="14" fill="#1e293b"/>
      <rect x="342" y="228" width="96" height="96" rx="14" fill="#ffffff" stroke="#dce5f2" stroke-width="2"/>
      <rect x="456" y="228" width="96" height="96" rx="14" fill="#f59e0b"/>

      <rect x="0" y="342" width="96" height="96" rx="14" fill="#ffffff" stroke="#dce5f2" stroke-width="2"/>
      <rect x="114" y="342" width="96" height="96" rx="14" fill="#1e293b"/>
      <rect x="228" y="342" width="96" height="96" rx="14" fill="#ffffff" stroke="#dce5f2" stroke-width="2"/>
      <rect x="342" y="342" width="96" height="96" rx="14" fill="#1e293b"/>
      <rect x="456" y="342" width="96" height="96" rx="14" fill="#ffffff" stroke="#dce5f2" stroke-width="2"/>

      <rect x="0" y="456" width="96" height="96" rx="14" fill="#ffffff" stroke="#dce5f2" stroke-width="2"/>
      <rect x="114" y="456" width="96" height="96" rx="14" fill="#ffffff" stroke="#dce5f2" stroke-width="2"/>
      <rect x="228" y="456" width="96" height="96" rx="14" fill="#ffffff" stroke="#dce5f2" stroke-width="2"/>
      <rect x="342" y="456" width="96" height="96" rx="14" fill="#ffffff" stroke="#dce5f2" stroke-width="2"/>
      <rect x="456" y="456" width="96" height="96" rx="14" fill="#1e293b"/>

      <rect x="0" y="570" width="96" height="96" rx="14" fill="#1e293b"/>
      <rect x="114" y="570" width="96" height="96" rx="14" fill="#ffffff" stroke="#dce5f2" stroke-width="2"/>
      <rect x="228" y="570" width="96" height="96" rx="14" fill="#1e293b"/>
      <rect x="342" y="570" width="96" height="96" rx="14" fill="#12b981"/>
      <rect x="456" y="570" width="96" height="96" rx="14" fill="#ffffff" stroke="#dce5f2" stroke-width="2"/>
    </g>
  </g>
  <g transform="translate(96 1064)">
    <rect width="608" height="96" rx="20" fill="#edf4ff" stroke="#dce5f2" stroke-width="3"/>
    <path d="M114 26v44" stroke="#2563eb" stroke-width="12" stroke-linecap="round"/>
    <path d="M94 54l20 20 20-20" fill="none" stroke="#2563eb" stroke-width="12" stroke-linecap="round" stroke-linejoin="round"/>
    <text x="168" y="60" fill="#172033" font-family="'Google Sans', 'Product Sans', 'Segoe UI', Arial, sans-serif" font-size="28" font-weight="800">GRAVITY DOWN</text>
  </g>
</svg>
