<svg xmlns="http://www.w3.org/2000/svg" width="1280" height="800" viewBox="0 0 1280 800" role="img" aria-labelledby="title desc">
  <title id="title">Gravity Maze early rotation puzzle screenshot</title>
  <desc id="desc">A stylized Gravity Maze game board with a blue player, yellow fragments, dark walls, and a green exit.</desc>
  <rect width="1280" height="800" fill="#f8fbff"/>
  <rect x="64" y="56" width="1152" height="688" rx="32" fill="#ffffff" stroke="#dce5f2" stroke-width="4"/>
  <text x="112" y="132" fill="#172033" font-family="Inter, Segoe UI, Arial, sans-serif" font-size="48" font-weight="800">Gravity Maze</text>
  <text x="112" y="180" fill="#637084" font-family="Inter, Segoe UI, Arial, sans-serif" font-size="28">Level 04 - Rotate gravity to reach the exit</text>
  <g transform="translate(160 238)">
    <rect width="800" height="448" rx="20" fill="#edf4ff"/>
    <g transform="translate(24 24)">
      <rect x="0" y="0" width="112" height="88" rx="14" fill="#ffffff" stroke="#dce5f2" stroke-width="2"/>
      <rect x="128" y="0" width="112" height="88" rx="14" fill="#ffffff" stroke="#dce5f2" stroke-width="2"/>
      <rect x="256" y="0" width="112" height="88" rx="14" fill="#f59e0b"/>
      <rect x="384" y="0" width="112" height="88" rx="14" fill="#ffffff" stroke="#dce5f2" stroke-width="2"/>
      <rect x="512" y="0" width="112" height="88" rx="14" fill="#1e293b"/>
      <rect x="640" y="0" width="112" height="88" rx="14" fill="#ffffff" stroke="#dce5f2" stroke-width="2"/>
      <rect x="0" y="104" width="112" height="88" rx="14" fill="#ffffff" stroke="#dce5f2" stroke-width="2"/>
      <rect x="128" y="104" width="112" height="88" rx="14" fill="#1e293b"/>
      <circle cx="312" cy="148" r="42" fill="#2563eb"/>
      <path d="M286 154h52" stroke="#ffffff" stroke-width="10" stroke-linecap="round"/>
      <rect x="384" y="104" width="112" height="88" rx="14" fill="#ffffff" stroke="#dce5f2" stroke-width="2"/>
      <rect x="512" y="104" width="112" height="88" rx="14" fill="#f59e0b"/>
      <rect x="640" y="104" width="112" height="88" rx="14" fill="#ffffff" stroke="#dce5f2" stroke-width="2"/>
      <rect x="0" y="208" width="112" height="88" rx="14" fill="#ffffff" stroke="#dce5f2" stroke-width="2"/>
      <rect x="128" y="208" width="112" height="88" rx="14" fill="#1e293b"/>
      <rect x="256" y="208" width="112" height="88" rx="14" fill="#ffffff" stroke="#dce5f2" stroke-width="2"/>
      <rect x="384" y="208" width="112" height="88" rx="14" fill="#1e293b"/>
      <rect x="512" y="208" width="112" height="88" rx="14" fill="#ffffff" stroke="#dce5f2" stroke-width="2"/>
      <rect x="640" y="208" width="112" height="88" rx="14" fill="#ffffff" stroke="#dce5f2" stroke-width="2"/>
      <rect x="0" y="312" width="112" height="88" rx="14" fill="#f59e0b"/>
      <rect x="128" y="312" width="112" height="88" rx="14" fill="#ffffff" stroke="#dce5f2" stroke-width="2"/>
      <rect x="256" y="312" width="112" height="88" rx="14" fill="#ffffff" stroke="#dce5f2" stroke-width="2"/>
      <rect x="384" y="312" width="112" height="88" rx="14" fill="#1e293b"/>
      <rect x="512" y="312" width="112" height="88" rx="14" fill="#12b981"/>
      <rect x="640" y="312" width="112" height="88" rx="14" fill="#ffffff" stroke="#dce5f2" stroke-width="2"/>
    </g>
  </g>
  <g transform="translate(1000 272)">
    <rect width="144" height="144" rx="24" fill="#edf4ff" stroke="#dce5f2" stroke-width="4"/>
    <path d="M72 32v78" stroke="#2563eb" stroke-width="14" stroke-linecap="round"/>
    <path d="M40 82l32 32 32-32" fill="none" stroke="#2563eb" stroke-width="14" stroke-linecap="round" stroke-linejoin="round"/>
    <text x="72" y="198" fill="#172033" text-anchor="middle" font-family="Inter, Segoe UI, Arial, sans-serif" font-size="26" font-weight="800">GRAVITY</text>
    <text x="72" y="232" fill="#637084" text-anchor="middle" font-family="Inter, Segoe UI, Arial, sans-serif" font-size="24">DOWN</text>
  </g>
</svg>
