<svg xmlns="http://www.w3.org/2000/svg" width="1280" height="800" viewBox="0 0 1280 800" role="img" aria-labelledby="title desc">
  <title id="title">Gravity Maze timing and route planning screenshot</title>
  <desc id="desc">A stylized Gravity Maze game board showing a route through walls toward a green exit.</desc>
  <rect width="1280" height="800" fill="#f8fbff"/>
  <rect x="64" y="56" width="1152" height="688" rx="32" fill="#ffffff" stroke="#dce5f2" stroke-width="4"/>
  <text x="112" y="132" fill="#172033" font-family="'Google Sans', 'Product Sans', 'Segoe UI', Arial, sans-serif" font-size="48" font-weight="800">Gravity Maze</text>
  <text x="112" y="180" fill="#637084" font-family="'Google Sans', 'Product Sans', 'Segoe UI', Arial, sans-serif" font-size="28">Level 11 - Plan the landing before you turn</text>
  <g transform="translate(160 238)">
    <rect width="800" height="448" rx="20" fill="#edf4ff"/>
    <path d="M116 340C218 300 244 192 344 174C446 156 500 252 610 204" fill="none" stroke="#2563eb" stroke-width="18" stroke-linecap="round" stroke-dasharray="2 34"/>
    <g transform="translate(24 24)">
      <rect x="0" y="0" width="112" height="88" rx="14" fill="#1e293b"/>
      <rect x="128" y="0" width="112" height="88" rx="14" fill="#ffffff" stroke="#dce5f2" stroke-width="2"/>
      <rect x="256" y="0" width="112" height="88" rx="14" fill="#ffffff" stroke="#dce5f2" stroke-width="2"/>
      <rect x="384" y="0" width="112" height="88" rx="14" fill="#f59e0b"/>
      <rect x="512" y="0" width="112" height="88" rx="14" fill="#ffffff" stroke="#dce5f2" stroke-width="2"/>
      <rect x="640" y="0" width="112" height="88" rx="14" fill="#ffffff" stroke="#dce5f2" stroke-width="2"/>
      <rect x="0" y="104" width="112" height="88" rx="14" fill="#ffffff" stroke="#dce5f2" stroke-width="2"/>
      <rect x="128" y="104" width="112" height="88" rx="14" fill="#ffffff" stroke="#dce5f2" stroke-width="2"/>
      <rect x="256" y="104" width="112" height="88" rx="14" fill="#1e293b"/>
      <rect x="384" y="104" width="112" height="88" rx="14" fill="#ffffff" stroke="#dce5f2" stroke-width="2"/>
      <rect x="512" y="104" width="112" height="88" rx="14" fill="#1e293b"/>
      <rect x="640" y="104" width="112" height="88" rx="14" fill="#ffffff" stroke="#dce5f2" stroke-width="2"/>
      <rect x="0" y="208" width="112" height="88" rx="14" fill="#ffffff" stroke="#dce5f2" stroke-width="2"/>
      <circle cx="184" cy="252" r="42" fill="#2563eb"/>
      <path d="M162 252h44" stroke="#ffffff" stroke-width="10" stroke-linecap="round"/>
      <rect x="256" y="208" width="112" height="88" rx="14" fill="#ffffff" stroke="#dce5f2" stroke-width="2"/>
      <rect x="384" y="208" width="112" height="88" rx="14" fill="#ffffff" stroke="#dce5f2" stroke-width="2"/>
      <rect x="512" y="208" width="112" height="88" rx="14" fill="#1e293b"/>
      <rect x="640" y="208" width="112" height="88" rx="14" fill="#12b981"/>
      <rect x="0" y="312" width="112" height="88" rx="14" fill="#ffffff" stroke="#dce5f2" stroke-width="2"/>
      <rect x="128" y="312" width="112" height="88" rx="14" fill="#1e293b"/>
      <rect x="256" y="312" width="112" height="88" rx="14" fill="#ffffff" stroke="#dce5f2" stroke-width="2"/>
      <rect x="384" y="312" width="112" height="88" rx="14" fill="#f59e0b"/>
      <rect x="512" y="312" width="112" height="88" rx="14" fill="#ffffff" stroke="#dce5f2" stroke-width="2"/>
      <rect x="640" y="312" width="112" height="88" rx="14" fill="#ffffff" stroke="#dce5f2" stroke-width="2"/>
    </g>
  </g>
  <g transform="translate(986 280)">
    <rect width="176" height="152" rx="24" fill="#edf4ff" stroke="#dce5f2" stroke-width="4"/>
    <path d="M120 76H50" stroke="#12b981" stroke-width="14" stroke-linecap="round"/>
    <path d="M78 44L46 76l32 32" fill="none" stroke="#12b981" stroke-width="14" stroke-linecap="round" stroke-linejoin="round"/>
    <text x="88" y="206" fill="#172033" text-anchor="middle" font-family="'Google Sans', 'Product Sans', 'Segoe UI', Arial, sans-serif" font-size="26" font-weight="800">NEXT TURN</text>
    <text x="88" y="240" fill="#637084" text-anchor="middle" font-family="'Google Sans', 'Product Sans', 'Segoe UI', Arial, sans-serif" font-size="24">LEFT</text>
  </g>
</svg>
