<svg xmlns="http://www.w3.org/2000/svg" width="960" height="960" viewBox="0 0 960 960" role="img" aria-labelledby="title desc">
  <title id="title">Gravity Maze board preview</title>
  <desc id="desc">A clean stylized puzzle board preview for Gravity Maze.</desc>
  <rect width="960" height="960" rx="48" fill="#ffffff"/>
  <rect x="32" y="32" width="896" height="896" rx="36" fill="#edf4ff" stroke="#dce5f2" stroke-width="4"/>
  <g transform="translate(104 104)">
    <rect x="0" y="0" width="128" height="128" rx="18" fill="#1e293b"/>
    <rect x="156" y="0" width="128" height="128" rx="18" fill="#ffffff" stroke="#dce5f2" stroke-width="3"/>
    <circle cx="376" cy="64" r="54" fill="#f59e0b"/>
    <rect x="468" y="0" width="128" height="128" rx="18" fill="#ffffff" stroke="#dce5f2" stroke-width="3"/>
    <rect x="624" y="0" width="128" height="128" rx="18" fill="#1e293b"/>

    <rect x="0" y="156" width="128" height="128" rx="18" fill="#ffffff" stroke="#dce5f2" stroke-width="3"/>
    <circle cx="220" cy="220" r="58" fill="#2563eb"/>
    <path d="M188 220h64" stroke="#ffffff" stroke-width="14" stroke-linecap="round"/>
    <rect x="312" y="156" width="128" height="128" rx="18" fill="#ffffff" stroke="#dce5f2" stroke-width="3"/>
    <rect x="468" y="156" width="128" height="128" rx="18" fill="#1e293b"/>
    <rect x="624" y="156" width="128" height="128" rx="18" fill="#ffffff" stroke="#dce5f2" stroke-width="3"/>

    <rect x="0" y="312" width="128" height="128" rx="18" fill="#ffffff" stroke="#dce5f2" stroke-width="3"/>
    <rect x="156" y="312" width="128" height="128" rx="18" fill="#1e293b"/>
    <rect x="312" y="312" width="128" height="128" rx="18" fill="#ffffff" stroke="#dce5f2" stroke-width="3"/>
    <rect x="468" y="312" width="128" height="128" rx="18" fill="#ffffff" stroke="#dce5f2" stroke-width="3"/>
    <rect x="624" y="312" width="128" height="128" rx="18" fill="#ffffff" stroke="#dce5f2" stroke-width="3"/>

    <circle cx="64" cy="532" r="54" fill="#f59e0b"/>
    <rect x="156" y="468" width="128" height="128" rx="18" fill="#ffffff" stroke="#dce5f2" stroke-width="3"/>
    <rect x="312" y="468" width="128" height="128" rx="18" fill="#1e293b"/>
    <rect x="468" y="468" width="128" height="128" rx="18" fill="#12b981"/>
    <rect x="624" y="468" width="128" height="128" rx="18" fill="#ffffff" stroke="#dce5f2" stroke-width="3"/>

    <rect x="0" y="624" width="128" height="128" rx="18" fill="#1e293b"/>
    <rect x="156" y="624" width="128" height="128" rx="18" fill="#ffffff" stroke="#dce5f2" stroke-width="3"/>
    <rect x="312" y="624" width="128" height="128" rx="18" fill="#ffffff" stroke="#dce5f2" stroke-width="3"/>
    <rect x="468" y="624" width="128" height="128" rx="18" fill="#ffffff" stroke="#dce5f2" stroke-width="3"/>
    <rect x="624" y="624" width="128" height="128" rx="18" fill="#1e293b"/>
  </g>
</svg>
